# xmcd CD database file
#
# Track frame offsets:
#	150
#	24455
#	66072
#	94964
#	115155
#	145248
#	164226
#	190530
#	215823
#	248089
#	267067
#
# Disc length: 3864 seconds
#
# Revision: 0
# Processed by: cddbd v1.5.2PL0 Copyright (c) Steve Scherf et al.
# Submitted via: CDex 1.51
#
DISCID=9f0f160b
DTITLE=Peter Seiler - Open Borders
DYEAR=1900
DGENRE=New Age
TTITLE0=Angelic Touch
TTITLE1=The Longing For
TTITLE2=Winds Of Peace
TTITLE3=Silent Leaves
TTITLE4=Hymn For Voices
TTITLE5=Waiting For Fall
TTITLE6=Children's Eyes
TTITLE7=Underwater Freedom
TTITLE8=Balance Of Power
TTITLE9=Waiting For Fall-The New Mix
TTITLE10=Das Lied Salomons
EXTD=
EXTT0=
EXTT1=
EXTT2=
EXTT3=
EXTT4=
EXTT5=
EXTT6=
EXTT7=
EXTT8=
EXTT9=
EXTT10=
PLAYORDER=
